# xmcd CD database file
#
# Track frame offsets:
#	150
#	16810
#	33505
#	49842
#	64930
#	78805
#	93552
#	105852
#	121040
#	138145
#	150150
#	161707
#	175762
#	187377
#	201235
#	217782
#	229912
#	239417
#	268295
#	291072
#
# Disc length: 4065 seconds
#
# Revision: 0
# Processed by: cddbd v1.4PL0 Copyright (c) Steve Scherf et al.
# Submitted via: Feurio! 1.65 - http://www.feurio.com
#
DISCID=0c0fdf14
DTITLE=Ike and Tina Turner - Mississippi Rolling Stone
DYEAR=1900
DGENRE=blues
TTITLE0=Mississippi Rolling Stone
TTITLE1=Living For The City
TTITLE2=Shake A Hand
TTITLE3=It's All Over
TTITLE4=Too Much For A Woman
TTITLE5=Rockin' And Rollin' Again
TTITLE6=Sugar Sugar
TTITLE7=Crazy 'bout You Baby
TTITLE8=I've Been Loving You Too Long
TTITLE9=A Fool In Love
TTITLE10=Cussin', Cryin' And Carryin' On
TTITLE11=It Sho' Ain't Me
TTITLE12=Somebody (Somewhere) Needs You
TTITLE13=It's Gonna Work Out Fine
TTITLE14=I Can't Stop Loving You
TTITLE15=Something's Got A Hold On Me
TTITLE16=Too Hot To Hold
TTITLE17=The Hunter
TTITLE18=Push
TTITLE19=Tina's Prayer
EXTD=
EXTT0=
EXTT1=
EXTT2=
EXTT3=
EXTT4=
EXTT5=
EXTT6=
EXTT7=
EXTT8=
EXTT9=
EXTT10=
EXTT11=
EXTT12=
EXTT13=
EXTT14=
EXTT15=
EXTT16=
EXTT17=
EXTT18=
EXTT19=
PLAYORDER=
